<svg width="70" height="81" viewBox="0 0 70 81" fill="none" xmlns="http://www.w3.org/2000/svg">
<path d="M56.5921 9.77858C56.9237 11.2149 56.8837 12.7121 56.4757 14.1291C56.0678 15.546 55.3054 16.8359 54.2604 17.8773C54.2604 17.8773 54.2372 17.8826 54.2317 17.9009C53.8415 18.2026 53.4512 18.5141 53.0869 18.8537C53.0869 18.8537 53.0614 18.8596 53.0581 18.8774L53.0419 18.8811C52.1406 19.4922 51.1336 19.9305 50.0721 20.1739C47.8572 20.6047 45.5618 20.1586 43.6709 18.9298C41.7799 17.701 40.4413 15.7858 39.938 13.5886C39.4347 11.3915 39.8061 9.08451 40.9736 7.15509C42.1412 5.22567 44.0135 3.82488 46.1951 3.24864C46.3157 3.22099 46.4271 3.19547 46.5502 3.1673C48.7563 2.75525 51.0361 3.21226 52.9117 4.44255C54.7873 5.67283 56.1132 7.58089 56.6114 9.76684L56.5921 9.77858Z" fill="#89D6FB"/>
<path d="M44.3985 40.6927L29.4352 73.9663C28.5051 75.9593 26.8262 77.5058 24.7626 78.2703C22.699 79.0349 20.4173 78.9558 18.4125 78.0502C16.4076 77.1447 14.8414 75.4857 14.0537 73.4332C13.2659 71.3807 13.3201 69.1004 14.2045 67.0868L29.5317 33.0125L44.3985 40.6927Z" fill="url(#paint0_linear_909_1560)"/>
<path d="M51.2583 25.4369L44.3983 40.6929L29.5314 33.0127L13.1766 24.5312C11.2094 23.5131 9.72797 21.7557 9.05819 19.6457C8.38842 17.5358 8.58516 15.246 9.60514 13.2802C10.6251 11.3144 12.3848 9.83351 14.497 9.16341C16.6093 8.49331 18.9011 8.68884 20.8683 9.70699L36.4099 17.7524L51.2583 25.4369Z" fill="url(#paint1_linear_909_1560)"/>
<defs>
<linearGradient id="paint0_linear_909_1560" x1="19.6855" y1="73.5472" x2="38.2459" y2="35.4592" gradientUnits="userSpaceOnUse">
<stop stop-color="#02A9F7"/>
<stop offset="0.19" stop-color="#02A7F4"/>
<stop offset="0.36" stop-color="#02A0E9"/>
<stop offset="0.51" stop-color="#0294D7"/>
<stop offset="0.66" stop-color="#0284BE"/>
<stop offset="0.81" stop-color="#026F9E"/>
<stop offset="0.94" stop-color="#02577A"/>
</linearGradient>
<linearGradient id="paint1_linear_909_1560" x1="43.4277" y1="30.5591" x2="3.80132" y2="10.8284" gradientUnits="userSpaceOnUse">
<stop offset="0.1" stop-color="#02A9F7"/>
<stop offset="0.2" stop-color="#02A4F0"/>
<stop offset="0.35" stop-color="#0298DD"/>
<stop offset="0.53" stop-color="#0283BD"/>
<stop offset="0.72" stop-color="#026691"/>
<stop offset="0.82" stop-color="#02577A"/>
</linearGradient>
</defs>
</svg>
